<?xml version="1.0" encoding="utf-8"?>
<!-- Generator: Adobe Illustrator 14.0.0, SVG Export Plug-In . SVG Version: 6.00 Build 43363)  -->
<!DOCTYPE svg PUBLIC "-//W3C//DTD SVG 1.1//EN" "http://www.w3.org/Graphics/SVG/1.1/DTD/svg11.dtd">
<svg version="1.1" id="Calque_1" xmlns="http://www.w3.org/2000/svg" xmlns:xlink="http://www.w3.org/1999/xlink" x="0px" y="0px"
	 width="39.877px" height="39.876px" viewBox="0 0 39.877 39.876" enable-background="new 0 0 39.877 39.876" xml:space="preserve">
<path fill="#FFFFFF" d="M39.877,19.938c0,11.012-8.927,19.938-19.939,19.938C8.927,39.876,0,30.949,0,19.938S8.927,0,19.939,0
	C30.95,0,39.877,8.926,39.877,19.938"/>
<path fill="#21409A" d="M37.664,25.548c-0.03-0.04-0.078-0.062-0.127-0.059c-0.106,0.011-0.086,0.029-0.653,1.343
	c-1.996,4.607-5.865,8.216-10.619,9.899c-1.473,0.522-3.002,0.854-4.541,0.986l-0.002,0.001
	c-8.176,0.705-15.785-4.162-18.503-11.837c-1.6-4.513-1.328-9.382,0.764-13.716c2.091-4.332,5.752-7.608,10.31-9.224
	c1.473-0.521,3-0.853,4.541-0.987c3.475-0.299,6.945,0.406,10.033,2.041c1.27,0.671,1.305,0.768,1.404,0.759
	c0.063-0.005,0.117-0.052,0.129-0.113c0.027-0.123,0.148-0.172-1.338-1.004c-3.285-1.837-6.991-2.637-10.716-2.315
	c-1.565,0.135-3.115,0.471-4.609,0.996C9.03,3.976,5.251,7.365,3.095,11.865c-2.156,4.499-2.431,9.568-0.774,14.275
	c2.83,8.038,10.73,13.141,19.212,12.411v-0.001c1.563-0.134,3.114-0.471,4.608-0.996c5.035-1.773,9.08-5.626,11.097-10.574
	C37.787,25.634,37.722,25.626,37.664,25.548"/>
<path fill="#21409A" d="M15.022,14.104c0.1-0.32,0.06-0.892-0.122-1.712c-0.197-0.883-0.409-1.473-0.638-1.77
	c-0.23-0.296-0.552-0.399-0.967-0.308l-0.097,0.022l0.977,4.402C14.646,14.636,14.927,14.424,15.022,14.104"/>
<path fill="#21409A" d="M11.625,26.907c0.26-0.057,0.406-0.239,0.439-0.548c0.034-0.307-0.036-0.843-0.206-1.608
	c-0.219-0.992-0.41-1.64-0.57-1.943c-0.161-0.307-0.379-0.43-0.654-0.369c-0.275,0.062-0.424,0.251-0.449,0.57
	c-0.023,0.321,0.067,0.937,0.269,1.847c0.187,0.838,0.362,1.409,0.527,1.712C11.146,26.854,11.36,26.967,11.625,26.907"/>
<path fill="#21409A" d="M27.649,30.257c-0.031,0.022-0.058,0.05-0.078,0.08c-0.021,0.03-0.037,0.063-0.045,0.098
	c-0.01,0.035-0.014,0.071-0.011,0.109c0.003,0.036,0.011,0.075,0.027,0.113l0.524-0.387C27.928,30.158,27.789,30.153,27.649,30.257"
	/>
<path fill="#21409A" d="M23.718,22.137c-0.25-0.595-0.49-1.237-0.719-1.926c0.041,0.352,0.074,0.709,0.099,1.072
	c0.024,0.365,0.043,0.753,0.055,1.165l0.022,0.767l0.916-0.203L23.718,22.137z"/>
<path fill="#21409A" d="M13.136,30.896c-0.106-0.064-0.213-0.082-0.322-0.051c-0.109,0.03-0.197,0.101-0.265,0.213
	c-0.073,0.119-0.099,0.234-0.077,0.343c0.022,0.11,0.087,0.198,0.195,0.265c0.108,0.065,0.216,0.084,0.323,0.054
	c0.107-0.03,0.197-0.104,0.268-0.22c0.071-0.117,0.095-0.23,0.073-0.339C13.308,31.05,13.243,30.963,13.136,30.896"/>
<path fill="#21409A" d="M18.956,32.771c-0.039-0.003-0.076,0-0.112,0.009c-0.035,0.01-0.068,0.025-0.098,0.045
	c-0.03,0.021-0.056,0.046-0.079,0.076c-0.022,0.03-0.04,0.065-0.054,0.105l0.65,0.048C19.231,32.879,19.129,32.784,18.956,32.771"/>
<path fill="#21409A" d="M17.723,16.324c-0.123,0.028-0.2,0.101-0.227,0.221c-0.031,0.109-0.025,0.321,0.019,0.637l0.76-0.168
	c-0.094-0.305-0.178-0.5-0.252-0.586C17.944,16.331,17.845,16.297,17.723,16.324"/>
<path fill="#21409A" d="M24.239,32.198c-0.096-0.057-0.2-0.066-0.313-0.029c-0.106,0.035-0.182,0.104-0.228,0.207
	c-0.043,0.104-0.045,0.217-0.006,0.336c0.041,0.128,0.109,0.221,0.205,0.279s0.197,0.069,0.305,0.035
	c0.115-0.037,0.193-0.105,0.238-0.208c0.045-0.104,0.045-0.219,0.004-0.344C24.405,32.35,24.336,32.258,24.239,32.198"/>
<path fill="#21409A" d="M32.039,25.646c-0.121-0.063-0.235-0.08-0.341-0.053c-0.108,0.027-0.188,0.093-0.241,0.194
	c-0.058,0.11-0.062,0.218-0.013,0.322c0.043,0.095,0.121,0.172,0.236,0.231c0.114,0.058,0.223,0.078,0.323,0.058
	c0.112-0.021,0.197-0.087,0.253-0.197c0.057-0.109,0.063-0.218,0.016-0.322C32.229,25.782,32.151,25.705,32.039,25.646"/>
<path fill="#21409A" d="M17.934,13.467c0.165,0.285,0.38,0.398,0.644,0.34c0.259-0.058,0.406-0.241,0.439-0.549
	c0.033-0.305-0.035-0.842-0.206-1.609c-0.219-0.99-0.409-1.639-0.57-1.942c-0.162-0.308-0.38-0.431-0.653-0.369
	c-0.275,0.061-0.425,0.251-0.45,0.57c-0.023,0.321,0.067,0.938,0.268,1.848C17.592,12.593,17.769,13.163,17.934,13.467"/>
<path fill="#21409A" d="M19.939,3.156c-9.269,0-16.782,7.514-16.782,16.781c0.001,9.269,7.515,16.781,16.782,16.781
	c9.268,0,16.782-7.514,16.781-16.781C36.72,10.669,29.206,3.155,19.939,3.156 M33.887,16.629l0.146,0.652l-1.28,0.284l0.401,1.814
	l1.136-0.252l0.146,0.651l-1.136,0.252l0.435,1.955l1.278-0.283l0.146,0.652l-2.053,0.455l-1.269-5.727L33.887,16.629z M20.67,8
	l1.274,2.113c0.365,0.598,0.715,1.242,1.047,1.937c-0.159-0.429-0.295-0.819-0.403-1.172c-0.108-0.352-0.198-0.687-0.269-1.003
	l-0.475-2.136l0.771-0.171l1.271,5.727l-0.722,0.16l-1.434-2.388c-0.133-0.222-0.263-0.451-0.389-0.688
	c-0.126-0.237-0.469-0.973-0.499-1.033c0.022,0.063,0.263,0.848,0.263,0.848s0.225,0.785,0.238,0.843
	c0.014,0.057,0.641,2.68,0.641,2.68l-0.766,0.169l-1.27-5.727L20.67,8z M19.969,15.389l0.074,0.34
	c0.115-0.297,0.308-0.476,0.581-0.536c0.263-0.059,0.472-0.006,0.626,0.157c0.088,0.093,0.165,0.293,0.233,0.599l0.465,2.103
	l-0.6,0.133l-0.441-1.976c-0.043-0.2-0.102-0.336-0.172-0.408c-0.071-0.072-0.17-0.094-0.298-0.065
	c-0.069,0.016-0.125,0.039-0.167,0.071c-0.042,0.033-0.072,0.076-0.091,0.131c-0.019,0.055-0.026,0.123-0.022,0.204
	c0.003,0.082,0.018,0.179,0.043,0.293l0.424,1.911l-0.6,0.133l-0.655-2.956L19.969,15.389z M16.413,9.534
	c0.13-0.475,0.465-0.771,1.001-0.891c0.479-0.105,0.871-0.021,1.176,0.257c0.203,0.187,0.383,0.475,0.543,0.863
	c0.152,0.361,0.309,0.903,0.469,1.625c0.224,1.011,0.271,1.754,0.14,2.229c-0.131,0.477-0.461,0.772-0.99,0.891
	c-0.556,0.122-0.999-0.02-1.328-0.426c-0.324-0.398-0.613-1.168-0.866-2.311C16.332,10.753,16.284,10.007,16.413,9.534
	 M18.226,18.433c0.251-0.056,0.335-0.276,0.25-0.658l0.559-0.124c0.11,0.705-0.127,1.121-0.711,1.251
	c-0.174,0.039-0.329,0.042-0.467,0.012c-0.138-0.031-0.261-0.101-0.37-0.205c-0.109-0.106-0.204-0.25-0.285-0.432
	c-0.081-0.182-0.151-0.403-0.208-0.667c-0.117-0.521-0.123-0.926-0.018-1.213s0.324-0.468,0.659-0.542
	c0.651-0.144,1.092,0.305,1.323,1.35l0.016,0.067l-1.372,0.306C17.742,18.208,17.95,18.494,18.226,18.433 M14.154,23.296
	c0,0,0.225,0.786,0.239,0.843c0.014,0.056,0.639,2.679,0.639,2.679l-0.764,0.169l-1.269-5.726l0.719-0.16l1.274,2.115
	c0.365,0.596,0.715,1.241,1.048,1.934c-0.16-0.428-0.295-0.817-0.403-1.17c-0.11-0.352-0.2-0.686-0.27-1.002l-0.473-2.137
	l0.771-0.171l1.27,5.726l-0.722,0.16l-1.434-2.386c-0.133-0.224-0.262-0.452-0.388-0.688s-0.47-0.973-0.499-1.034
	C13.913,22.511,14.154,23.296,14.154,23.296 M13.233,9.648c0.29-0.063,0.54-0.087,0.752-0.065c0.196,0.021,0.384,0.096,0.563,0.222
	c0.268,0.19,0.489,0.465,0.665,0.825c0.173,0.348,0.336,0.866,0.488,1.553c0.14,0.631,0.204,1.156,0.19,1.577
	c-0.014,0.403-0.113,0.729-0.296,0.98c-0.223,0.312-0.697,0.548-1.419,0.707l-0.623,0.139l-1.27-5.728L13.233,9.648z M8.923,28.246
	c-1.159,0.257-1.949-0.562-2.369-2.455c-0.227-1.024-0.254-1.816-0.082-2.379c0.173-0.563,0.551-0.908,1.134-1.037
	c0.215-0.048,0.44-0.038,0.675,0.028l0.155,0.693c-0.22-0.052-0.396-0.064-0.53-0.034c-0.183,0.04-0.329,0.12-0.44,0.24
	c-0.111,0.119-0.189,0.282-0.232,0.489c-0.044,0.207-0.054,0.459-0.031,0.756s0.078,0.643,0.165,1.036
	c0.313,1.414,0.833,2.04,1.557,1.88c0.126-0.028,0.269-0.102,0.43-0.22l0.157,0.708C9.35,28.098,9.153,28.194,8.923,28.246
	 M10.472,27.183c-0.324-0.396-0.613-1.168-0.866-2.31c-0.226-1.02-0.275-1.765-0.146-2.236c0.131-0.475,0.465-0.772,1.001-0.891
	c0.48-0.106,0.873-0.021,1.178,0.256c0.202,0.186,0.383,0.474,0.542,0.863c0.153,0.361,0.309,0.902,0.469,1.624
	c0.224,1.012,0.271,1.756,0.14,2.23c-0.131,0.475-0.461,0.771-0.99,0.888C11.244,27.731,10.801,27.59,10.472,27.183 M12.009,30.197
	c-0.023-0.063-0.065-0.118-0.126-0.168c-0.095-0.076-0.2-0.106-0.317-0.091s-0.216,0.074-0.296,0.174
	c-0.083,0.103-0.121,0.211-0.114,0.326c0.009,0.115,0.061,0.211,0.155,0.287c0.061,0.05,0.125,0.08,0.193,0.091
	c0.065,0.012,0.158,0.004,0.277-0.02l-0.269,0.333c-0.145-0.03-0.269-0.086-0.371-0.169c-0.17-0.137-0.267-0.306-0.292-0.506
	c-0.025-0.202,0.028-0.385,0.16-0.548c0.131-0.162,0.3-0.254,0.506-0.273c0.206-0.02,0.392,0.04,0.56,0.175
	c0.108,0.087,0.188,0.194,0.243,0.324l-0.271,0.335C12.046,30.351,12.033,30.261,12.009,30.197 M13.08,32.01
	c-0.199,0.044-0.389,0.011-0.57-0.099c-0.18-0.11-0.293-0.265-0.339-0.462c-0.047-0.194-0.015-0.385,0.097-0.568
	c0.106-0.173,0.258-0.282,0.456-0.328c0.198-0.046,0.386-0.015,0.564,0.094c0.179,0.109,0.293,0.263,0.343,0.461
	c0.049,0.198,0.019,0.385-0.09,0.564C13.432,31.851,13.278,31.964,13.08,32.01 M15.758,32.456l-0.33,0.803l-0.301-0.124l0.297-0.722
	c0.051-0.124,0.072-0.219,0.063-0.282c-0.01-0.065-0.05-0.113-0.121-0.143c-0.083-0.033-0.156-0.026-0.219,0.02
	c-0.064,0.047-0.124,0.139-0.18,0.276l-0.277,0.672l-0.301-0.125l0.295-0.718c0.095-0.23,0.076-0.374-0.057-0.428
	c-0.084-0.036-0.159-0.029-0.224,0.019c-0.064,0.047-0.125,0.139-0.181,0.273l-0.276,0.671l-0.299-0.123l0.534-1.299l0.3,0.124
	l-0.05,0.12c0.083-0.037,0.149-0.057,0.199-0.063c0.053-0.005,0.112,0.008,0.178,0.034c0.146,0.062,0.236,0.172,0.269,0.335
	c0.147-0.089,0.301-0.101,0.461-0.035C15.831,31.863,15.904,32.101,15.758,32.456 M16.407,33.515l-0.313-0.085l0.364-1.356
	l0.314,0.085L16.407,33.515z M16.971,31.608c-0.016,0.058-0.049,0.1-0.099,0.128c-0.05,0.03-0.103,0.037-0.16,0.022
	c-0.057-0.017-0.099-0.048-0.129-0.1c-0.029-0.051-0.036-0.104-0.02-0.161c0.015-0.056,0.047-0.098,0.098-0.126
	c0.051-0.029,0.103-0.036,0.16-0.021c0.056,0.015,0.099,0.047,0.128,0.099C16.978,31.499,16.986,31.552,16.971,31.608
	 M17.908,32.706l-0.247-0.048l-0.203,1.084l-0.319-0.06l0.202-1.083l-0.136-0.025l0.056-0.298l0.136,0.025l0.094-0.506l0.319,0.06
	l-0.094,0.506l0.248,0.046L17.908,32.706z M16.837,20.409l2.061-0.456l0.145,0.651l-1.29,0.287l0.401,1.809l1.165-0.258l0.144,0.653
	l-1.164,0.258l0.579,2.611l-0.771,0.171L16.837,20.409z M19.583,33.268l-0.007,0.076l-1.004-0.075c0,0.116,0.031,0.21,0.092,0.283
	c0.061,0.072,0.143,0.112,0.247,0.119c0.081,0.007,0.149-0.008,0.204-0.042c0.055-0.034,0.119-0.102,0.193-0.2l0.262,0.173
	c-0.048,0.069-0.097,0.128-0.148,0.175c-0.051,0.048-0.104,0.086-0.16,0.115c-0.056,0.029-0.116,0.05-0.18,0.06
	c-0.063,0.012-0.131,0.014-0.204,0.009c-0.209-0.017-0.372-0.096-0.488-0.239c-0.117-0.146-0.167-0.328-0.15-0.551
	c0.016-0.223,0.091-0.397,0.224-0.525c0.133-0.126,0.302-0.181,0.507-0.166c0.206,0.016,0.364,0.093,0.474,0.233
	C19.554,32.851,19.6,33.037,19.583,33.268 M19.743,19.765l0.771-0.17l1.27,5.726l-0.772,0.171L19.743,19.765z M20.793,33.971
	c-0.216,0.01-0.401-0.051-0.554-0.184c-0.153-0.135-0.234-0.307-0.245-0.516c-0.01-0.209,0.055-0.39,0.196-0.541
	c0.141-0.15,0.319-0.231,0.534-0.242c0.139-0.007,0.271,0.021,0.397,0.08l0.021,0.431c-0.078-0.086-0.147-0.146-0.207-0.176
	c-0.06-0.031-0.129-0.047-0.207-0.043c-0.121,0.007-0.221,0.055-0.296,0.144c-0.077,0.09-0.112,0.199-0.106,0.327
	c0.007,0.132,0.051,0.237,0.133,0.318c0.083,0.08,0.186,0.118,0.307,0.112c0.078-0.004,0.146-0.024,0.203-0.061
	c0.057-0.035,0.121-0.103,0.194-0.2l0.021,0.428C21.056,33.924,20.925,33.965,20.793,33.971 M22.724,33.676l-0.15-0.817
	c-0.021-0.11-0.055-0.188-0.104-0.229c-0.048-0.043-0.115-0.057-0.203-0.04c-0.111,0.021-0.184,0.069-0.216,0.146
	c-0.032,0.078-0.032,0.202-0.001,0.372l0.122,0.668l-0.319,0.06l-0.438-2.396l0.318-0.058l0.207,1.129
	c0.095-0.123,0.211-0.197,0.348-0.222c0.156-0.029,0.29-0.001,0.402,0.083c0.096,0.072,0.16,0.206,0.195,0.398l0.156,0.847
	L22.724,33.676z M22.487,25.165l-0.023-6.003l0.602-0.134l2.496,5.455l-0.764,0.169l-0.463-1.068L23.2,23.836l0.029,1.165
	L22.487,25.165z M24.644,33.146l-0.047-0.14c-0.088,0.16-0.205,0.264-0.352,0.312c-0.184,0.061-0.359,0.043-0.523-0.052
	c-0.164-0.096-0.279-0.247-0.346-0.451c-0.064-0.2-0.059-0.387,0.018-0.559c0.075-0.172,0.205-0.288,0.385-0.347
	c0.154-0.051,0.314-0.032,0.479,0.056l-0.05-0.155l0.311-0.1l0.435,1.335L24.644,33.146z M25.633,32.753l-0.596-1.271l0.293-0.138
	l0.054,0.114c0.027-0.083,0.057-0.144,0.09-0.185c0.031-0.042,0.076-0.076,0.135-0.104c0.078-0.036,0.17-0.049,0.278-0.038
	l-0.008,0.332c-0.075-0.015-0.14-0.008-0.192,0.016c-0.16,0.076-0.183,0.234-0.07,0.477l0.311,0.658L25.633,32.753z M26.922,32.102
	l-0.558-0.95l-0.118,0.07l-0.153-0.261l0.119-0.071l-0.26-0.444l0.279-0.163l0.26,0.443l0.218-0.127l0.153,0.261l-0.217,0.128
	l0.558,0.949L26.922,32.102z M28.659,30.714c-0.008,0.069-0.023,0.134-0.047,0.192s-0.055,0.113-0.096,0.162
	c-0.041,0.051-0.093,0.097-0.15,0.14c-0.17,0.125-0.344,0.171-0.526,0.138c-0.183-0.034-0.341-0.141-0.474-0.321
	c-0.133-0.178-0.189-0.358-0.172-0.543c0.019-0.183,0.111-0.334,0.275-0.457c0.166-0.123,0.336-0.167,0.512-0.132
	c0.174,0.034,0.33,0.145,0.467,0.331l0.045,0.063l-0.811,0.598c0.076,0.088,0.161,0.139,0.256,0.155
	c0.092,0.014,0.181-0.01,0.264-0.071c0.066-0.048,0.107-0.104,0.127-0.165c0.02-0.063,0.023-0.155,0.016-0.277l0.311-0.04
	C28.665,30.568,28.666,30.645,28.659,30.714 M28.211,23.896l-1.435-2.386c-0.133-0.222-0.262-0.452-0.389-0.688
	c-0.126-0.236-0.47-0.973-0.498-1.033c0.021,0.063,0.262,0.849,0.262,0.849s0.225,0.785,0.238,0.842
	c0.014,0.056,0.639,2.679,0.639,2.679l-0.762,0.171l-1.271-5.728l0.719-0.159l1.274,2.114c0.365,0.596,0.716,1.241,1.048,1.935
	c-0.159-0.429-0.296-0.818-0.403-1.171c-0.109-0.352-0.199-0.686-0.27-1.002l-0.473-2.137l0.771-0.171l1.271,5.726L28.211,23.896z
	 M29.217,18.369c0.171-0.563,0.55-0.908,1.134-1.037c0.215-0.049,0.439-0.038,0.674,0.028l0.154,0.694
	c-0.219-0.053-0.395-0.064-0.529-0.035c-0.183,0.041-0.33,0.121-0.44,0.24s-0.188,0.283-0.231,0.489
	c-0.043,0.207-0.054,0.459-0.031,0.756s0.078,0.642,0.166,1.036c0.313,1.413,0.832,2.041,1.557,1.88
	c0.126-0.028,0.27-0.103,0.43-0.221l0.157,0.709c-0.163,0.146-0.358,0.242-0.589,0.294c-1.16,0.257-1.949-0.561-2.369-2.455
	C29.071,19.725,29.044,18.931,29.217,18.369 M29.587,30.19c-0.041,0.039-0.089,0.058-0.143,0.056
	c-0.055-0.002-0.103-0.024-0.142-0.066c-0.036-0.039-0.054-0.087-0.052-0.142c0.002-0.057,0.023-0.103,0.063-0.141
	c0.041-0.037,0.088-0.055,0.144-0.053s0.103,0.022,0.14,0.063c0.038,0.041,0.057,0.09,0.055,0.145S29.628,30.152,29.587,30.19
	 M30.637,29.102c-0.138,0.16-0.308,0.245-0.509,0.259c-0.201,0.016-0.383-0.049-0.546-0.189c-0.153-0.132-0.236-0.3-0.249-0.503
	c-0.012-0.203,0.05-0.384,0.186-0.541c0.137-0.158,0.308-0.246,0.512-0.264c0.203-0.015,0.383,0.045,0.541,0.183
	s0.244,0.308,0.258,0.511C30.84,28.76,30.776,28.94,30.637,29.102 M31.45,28.009l-1.164-0.786l0.182-0.268l0.104,0.069
	c-0.019-0.085-0.024-0.152-0.018-0.204c0.008-0.052,0.027-0.104,0.063-0.157c0.049-0.071,0.123-0.131,0.221-0.177L31,26.775
	c-0.071,0.026-0.123,0.064-0.156,0.112c-0.099,0.146-0.038,0.295,0.185,0.445l0.604,0.406L31.45,28.009z M33.17,26.649
	c-0.086,0.167-0.202,0.281-0.347,0.342c-0.151,0.063-0.312,0.062-0.483-0.007l0.149-0.289c0.066,0.021,0.123,0.027,0.171,0.019
	c0.108-0.02,0.192-0.086,0.252-0.201c0.108-0.21,0.034-0.383-0.224-0.516l-0.174-0.091c0.057,0.176,0.047,0.338-0.029,0.487
	c-0.088,0.169-0.223,0.277-0.401,0.322c-0.181,0.045-0.365,0.019-0.552-0.078c-0.182-0.094-0.311-0.225-0.385-0.392
	c-0.078-0.18-0.071-0.358,0.021-0.538c0.081-0.157,0.207-0.258,0.378-0.302l-0.142-0.072l0.15-0.288l1.217,0.63
	c0.06,0.03,0.11,0.059,0.153,0.086s0.079,0.053,0.11,0.077c0.083,0.068,0.143,0.15,0.18,0.246
	C33.287,26.265,33.272,26.453,33.17,26.649"/>
<path fill="#21409A" d="M30.354,28.298c-0.103-0.09-0.209-0.132-0.321-0.128c-0.113,0.004-0.211,0.054-0.293,0.148
	c-0.081,0.095-0.115,0.197-0.104,0.31c0.014,0.111,0.068,0.211,0.168,0.297c0.105,0.092,0.215,0.136,0.325,0.132
	c0.112-0.004,0.21-0.053,0.294-0.148c0.081-0.096,0.117-0.199,0.105-0.311S30.458,28.387,30.354,28.298"/>
</svg>
