<?xml version="1.0" encoding="utf-8"?>
<!-- Generator: Adobe Illustrator 14.0.0, SVG Export Plug-In . SVG Version: 6.00 Build 43363)  -->
<!DOCTYPE svg PUBLIC "-//W3C//DTD SVG 1.1//EN" "http://www.w3.org/Graphics/SVG/1.1/DTD/svg11.dtd">
<svg version="1.1" id="Calque_1" xmlns="http://www.w3.org/2000/svg" xmlns:xlink="http://www.w3.org/1999/xlink" x="0px" y="0px"
	 width="93.543px" height="93.543px" viewBox="0 0 93.543 93.543" enable-background="new 0 0 93.543 93.543" xml:space="preserve">
<g>
	<path d="M60.836,15.863c4.579,0,10.63,0,10.63,0V0c0,0-6.378,0-15.046,0c-8.667,0-19.951,5.561-19.951,21.75
		c0,3.027,0,7.432,0,12.593H22.078v16.436h14.391c0,20.467,0,42.765,0,42.765h6.378h5.07h5.724c0,0,0-23.099,0-42.765h14.309
		l2.372-16.436H53.641c0-5.4,0-9.303,0-10.467C53.641,18.479,56.257,15.863,60.836,15.863z"/>
</g>
</svg>
