<?xml version="1.0" encoding="utf-8"?>
<!-- Generator: Adobe Illustrator 14.0.0, SVG Export Plug-In . SVG Version: 6.00 Build 43363)  -->
<!DOCTYPE svg PUBLIC "-//W3C//DTD SVG 1.1//EN" "http://www.w3.org/Graphics/SVG/1.1/DTD/svg11.dtd">
<svg version="1.1" id="Calque_1" xmlns="http://www.w3.org/2000/svg" xmlns:xlink="http://www.w3.org/1999/xlink" x="0px" y="0px"
	 width="80px" height="80px" viewBox="0 0 80 80" enable-background="new 0 0 80 80" xml:space="preserve">
<g>
	<g>
		<path d="M40,19.323c-11.401,0-20.676,9.275-20.676,20.677S28.599,60.677,40,60.677c11.402,0,20.678-9.275,20.678-20.677
			S51.401,19.323,40,19.323z M40,53.354c-7.363,0-13.353-5.99-13.353-13.354S32.637,26.646,40,26.646
			c7.364,0,13.354,5.99,13.354,13.354S47.363,53.354,40,53.354z"/>
		<circle cx="61.321" cy="18.769" r="4.823"/>
		<path d="M57.15,0H22.849C10.25,0,0,10.25,0,22.85V57.15C0,69.75,10.25,80,22.849,80H57.15C69.75,80,80,69.75,80,57.15V22.85
			C80,10.25,69.75,0,57.15,0z M72.676,57.15c0,8.562-6.965,15.526-15.525,15.526H22.849c-8.561,0-15.525-6.965-15.525-15.526V22.85
			c0-8.562,6.964-15.525,15.525-15.525H57.15c8.561,0,15.525,6.964,15.525,15.525V57.15z"/>
	</g>
</g>
</svg>
