<?xml version="1.0" encoding="utf-8"?>
<!-- Generator: Adobe Illustrator 14.0.0, SVG Export Plug-In . SVG Version: 6.00 Build 43363)  -->
<!DOCTYPE svg PUBLIC "-//W3C//DTD SVG 1.1//EN" "http://www.w3.org/Graphics/SVG/1.1/DTD/svg11.dtd">
<svg version="1.1" id="Calque_1" xmlns="http://www.w3.org/2000/svg" xmlns:xlink="http://www.w3.org/1999/xlink" x="0px" y="0px"
	 width="73.645px" height="73.651px" viewBox="0 0 73.645 73.651" enable-background="new 0 0 73.645 73.651" xml:space="preserve">
<g>
	<path id="linkedin-square-rounded-icon_2_" d="M16.675,73.651H1.476V24.551h15.199V73.651z M9.002,18.119
		c-4.964,0-8.987-4.055-8.987-9.06C0.015,4.057,4.038,0,9.002,0s8.987,4.057,8.987,9.06C17.989,14.064,13.966,18.119,9.002,18.119z
		 M73.63,73.651H58.505c0,0,0-18.704,0-25.775c0-7.067-2.686-11.015-8.275-11.015c-6.083,0-9.26,4.109-9.26,11.015
		c0,7.563,0,25.775,0,25.775H26.393V24.551H40.97v6.612c0,0,4.383-8.112,14.796-8.112c10.41,0,17.864,6.359,17.864,19.512
		C73.63,55.713,73.63,73.651,73.63,73.651z"/>
</g>
</svg>
