<svg id="Calque_1" data-name="Calque 1" xmlns="http://www.w3.org/2000/svg" width="137.55" height="37.31" viewBox="0 0 137.55 37.31"><defs><style>.cls-1{fill:#221f20;}</style></defs><title>logo-1</title><g id="Calque_2" data-name="Calque 2"><g id="Calque_1-2" data-name="Calque 1-2"><path class="cls-1" d="M43.24,20.44V30.87c5,0,8.25-5,8.25-9.93,0-2.72-1.18-6.53-4.43-6.53C44,14.41,43.25,18,43.24,20.44Z" transform="translate(-21.82 -11.69)"/><path class="cls-1" d="M52,15.53a11.32,11.32,0,0,1,.44,11.27c-2.81,5.67-6.2,6.73-9.08,7.53V49A18.69,18.69,0,0,0,52,15.53Z" transform="translate(-21.82 -11.69)"/><path class="cls-1" d="M37.71,33.87C32,32.43,24.82,26.61,24,25.87h5.65a33.42,33.42,0,0,0,8.06,4.56V22.64A9.4,9.4,0,0,1,42.28,14a7.29,7.29,0,0,1,5.49-.85A18.71,18.71,0,1,0,37.71,48.9Z" transform="translate(-21.82 -11.69)"/><path class="cls-1" d="M65.47,29.8V16.4h3V29.8Z" transform="translate(-21.82 -11.69)"/><path class="cls-1" d="M72.91,29.8V16.4h2.87l6,9v-9h2.73V29.8h-3L75.65,21v8.8Z" transform="translate(-21.82 -11.69)"/><path class="cls-1" d="M87.46,25.44l2.88-.25a3,3,0,0,0,1,1.94,3.35,3.35,0,0,0,2.14.63,3.51,3.51,0,0,0,2.16-.56,1.64,1.64,0,0,0,.72-1.29,1.12,1.12,0,0,0-.31-.81,2.4,2.4,0,0,0-1-.58c-.34-.11-1.13-.31-2.36-.59a8.64,8.64,0,0,1-3.34-1.32,3.39,3.39,0,0,1-1.3-2.7A3.2,3.2,0,0,1,88.64,18a3.89,3.89,0,0,1,1.82-1.35,8.06,8.06,0,0,1,2.88-.47,6.57,6.57,0,0,1,4.15,1.11,3.79,3.79,0,0,1,1.47,3l-3,.12a2.29,2.29,0,0,0-.81-1.49,3.19,3.19,0,0,0-1.88-.45,3.51,3.51,0,0,0-2,.49.92.92,0,0,0-.47.83,1,1,0,0,0,.44.81,8.1,8.1,0,0,0,2.71.9,15.35,15.35,0,0,1,3.19,1,4,4,0,0,1,1.64,1.23,4,4,0,0,1-.11,4.3,4.18,4.18,0,0,1-2,1.49,8.87,8.87,0,0,1-3.19.49,6.73,6.73,0,0,1-4.26-1.17A5,5,0,0,1,87.46,25.44Z" transform="translate(-21.82 -11.69)"/><path class="cls-1" d="M105,29.8V18.72h-4.39V16.4h11.63v2.32h-4.33V29.8Z" transform="translate(-21.82 -11.69)"/><path class="cls-1" d="M114.5,29.8V16.4h3V29.8Z" transform="translate(-21.82 -11.69)"/><path class="cls-1" d="M124.09,29.8V18.72h-4.34V16.4h11.63v2.32h-4.33V29.8Z" transform="translate(-21.82 -11.69)"/><path class="cls-1" d="M133.36,16.4h3v7.26a14,14,0,0,0,.11,2.24,2.15,2.15,0,0,0,.9,1.32,3.44,3.44,0,0,0,2,.5,3.14,3.14,0,0,0,1.89-.47,1.82,1.82,0,0,0,.77-1.16,13.36,13.36,0,0,0,.13-2.28V16.4h3v7a16.27,16.27,0,0,1-.24,3.41,3.61,3.61,0,0,1-.89,1.68,4.53,4.53,0,0,1-1.72,1.1,8.14,8.14,0,0,1-2.81.4,8.78,8.78,0,0,1-3.18-.44,4.65,4.65,0,0,1-1.72-1.15,3.65,3.65,0,0,1-.82-1.49,14.39,14.39,0,0,1-.29-3.4Z" transform="translate(-21.82 -11.69)"/><path class="cls-1" d="M151.24,29.8V18.72H146.9V16.4h11.63v2.32H154.2V29.8Z" transform="translate(-21.82 -11.69)"/><path class="cls-1" d="M65.47,47.49V34.09h4.74a19.64,19.64,0,0,1,3.51.2,3.8,3.8,0,0,1,2.1,1.31,3.92,3.92,0,0,1,.85,2.61,4,4,0,0,1-.49,2.08,3.82,3.82,0,0,1-1.24,1.32,4.2,4.2,0,0,1-1.53.63,18.44,18.44,0,0,1-3.06.2H68.42v5.05Zm3-11.13v3.81H70A8.28,8.28,0,0,0,72.33,40a1.86,1.86,0,0,0,.92-.66,1.78,1.78,0,0,0,.33-1,1.7,1.7,0,0,0-.46-1.21A2.11,2.11,0,0,0,72,36.45a15,15,0,0,0-2.12-.09Z" transform="translate(-21.82 -11.69)"/><path class="cls-1" d="M90.73,47.49H87.52l-1.28-3H80.39l-1.22,3H76l5.7-13.4h3.13Zm-5.44-5.31-2-5-2,5Z" transform="translate(-21.82 -11.69)"/><path class="cls-1" d="M91.15,43.13,94,42.88a3,3,0,0,0,1,1.94,3.35,3.35,0,0,0,2.14.63,3.48,3.48,0,0,0,2.15-.56A1.6,1.6,0,0,0,100,43.6a1.12,1.12,0,0,0-.31-.81,2.4,2.4,0,0,0-1.06-.58c-.35-.11-1.13-.31-2.37-.59A8.23,8.23,0,0,1,93,40.3a3.38,3.38,0,0,1-1.35-2.7,3.21,3.21,0,0,1,.67-1.88,3.89,3.89,0,0,1,1.82-1.35A8,8,0,0,1,97,33.86,6.53,6.53,0,0,1,101.15,35a3.74,3.74,0,0,1,1.46,3l-3,.12a2.29,2.29,0,0,0-.81-1.49A3.27,3.27,0,0,0,97,36.1a3.6,3.6,0,0,0-2,.48,1,1,0,0,0,0,1.65,8.1,8.1,0,0,0,2.71.9,15.35,15.35,0,0,1,3.19,1,3.75,3.75,0,0,1,1.93,4.94,4.24,4.24,0,0,1-.42.72,4.18,4.18,0,0,1-2,1.49,8.87,8.87,0,0,1-3.19.49,6.73,6.73,0,0,1-4.26-1.17A5,5,0,0,1,91.15,43.13Z" transform="translate(-21.82 -11.69)"/><path class="cls-1" d="M108.22,47.49V36.36h-4.34V34.09h11.63v2.27h-4.33V47.49Z" transform="translate(-21.82 -11.69)"/><path class="cls-1" d="M117.81,47.49V34.09h10.84v2.27h-7.89v3h7.34v2.27h-7.34v3.63h8.17v2.26Z" transform="translate(-21.82 -11.69)"/><path class="cls-1" d="M131.42,34.09h3v7.26a14,14,0,0,0,.11,2.24,2.15,2.15,0,0,0,.9,1.32,3.44,3.44,0,0,0,2,.5,3.23,3.23,0,0,0,1.89-.47,1.86,1.86,0,0,0,.77-1.16,13.36,13.36,0,0,0,.13-2.28V34.09h3v7A16.25,16.25,0,0,1,143,44.5a3.62,3.62,0,0,1-1,1.72,4.53,4.53,0,0,1-1.72,1.1,8.14,8.14,0,0,1-2.81.4,8.78,8.78,0,0,1-3.18-.44,4.65,4.65,0,0,1-1.72-1.15,3.79,3.79,0,0,1-.83-1.49,14.93,14.93,0,0,1-.28-3.4Z" transform="translate(-21.82 -11.69)"/><path class="cls-1" d="M146.21,47.49V34.09h6.22a11.51,11.51,0,0,1,3.41.36,3.34,3.34,0,0,1,1.7,1.28,3.63,3.63,0,0,1,.64,2.12,3.42,3.42,0,0,1-1,2.49,4.88,4.88,0,0,1-2.9,1.24,6.77,6.77,0,0,1,1.62,1.14,14.22,14.22,0,0,1,1.68,2.18l1.79,2.61h-3.53L153.7,44.6a18.83,18.83,0,0,0-1.56-2,2.14,2.14,0,0,0-.89-.56,5.25,5.25,0,0,0-1.48-.15h-.6v5.59Zm3-7.73h2.18a12.48,12.48,0,0,0,2.66-.17,1.68,1.68,0,0,0,.73-2.68,1.87,1.87,0,0,0-1.11-.53h-4.46Z" transform="translate(-21.82 -11.69)"/></g></g></svg>