<?xml version="1.0" encoding="utf-8"?>
<!-- Generator: Adobe Illustrator 14.0.0, SVG Export Plug-In . SVG Version: 6.00 Build 43363)  -->
<!DOCTYPE svg PUBLIC "-//W3C//DTD SVG 1.1//EN" "http://www.w3.org/Graphics/SVG/1.1/DTD/svg11.dtd">
<svg version="1.1" id="Calque_1" xmlns="http://www.w3.org/2000/svg" xmlns:xlink="http://www.w3.org/1999/xlink" x="0px" y="0px"
	 width="74.999px" height="75.004px" viewBox="0 0 74.999 75.004" enable-background="new 0 0 74.999 75.004" xml:space="preserve">
<g>
	<path id="twitter-4-icon_1_" d="M67.323,22.206C68.297,43.847,52.154,67.98,23.588,67.98c-8.689,0-16.781-2.549-23.588-6.918
		c8.162,0.964,16.309-1.299,22.781-6.37c-6.735-0.123-12.416-4.571-14.376-10.687c2.411,0.462,4.784,0.328,6.949-0.264
		C7.955,42.257,2.844,35.587,3.012,28.46c2.077,1.153,4.448,1.846,6.97,1.924C3.13,25.805,1.189,16.757,5.22,9.841
		c7.592,9.311,18.929,15.437,31.716,16.077c-2.24-9.626,5.058-18.894,14.992-18.894c4.425,0,8.422,1.869,11.229,4.859
		c3.504-0.69,6.796-1.972,9.772-3.734c-1.15,3.592-3.591,6.61-6.766,8.515c3.11-0.372,6.077-1.201,8.835-2.425
		C72.938,17.328,70.33,20.038,67.323,22.206z"/>
</g>
</svg>
